<?xml version="1.0" encoding="utf-8"?>
<svg viewBox="0 0 1024 1024" xmlns="http://www.w3.org/2000/svg">
	<defs>
		<pattern id="background" height="100%" viewBox="0 0 1024 1024" width="100%">
			<rect fill="#ED8A42" height="1024" width="1024"/>
			<path d="m509,244l128,530l145,-303z" fill="#EB7E3B"/>
			<path d="m509,244l-413,392l541,138z" fill="#EC8E44"/>
			<path d="m782,471l319,-559l-592,332z" fill="#E7873F"/>
			<path d="m1441,936l-245,-628l-414,163z" fill="#E14E24"/>
			<path d="m637,774l804,162l-659,-465z" fill="#DE4621"/>
			<path d="m230,1281l697,-79l-290,-428z" fill="#E04C23"/>
			<path d="m96,636l134,645l407,-507z" fill="#E57335"/>
			<path d="m1196,308l-95,-396l-319,559z" fill="#E26E32"/>
			<path d="m96,636l-230,512l364,133z" fill="#E37C38"/>
			<path d="m-270,11l-33,856l399,-231z" fill="#EDB157"/>
			<path d="m-303,867l169,281l230,-512z" fill="#E68F42"/>
			<path d="m509,244l-779,-233l366,625z" fill="#EDB75A"/>
			<path d="m88,-471l-358,482l779,233z" fill="#EECA66"/>
			<path d="m927,1202l514,-266l-804,-162z" fill="#C63122"/>
			<path d="m1101,-88l-202,-348l-390,680z" fill="#E79344"/>
			<path d="m688,-639l-600,168l421,715z" fill="#EDB65A"/>
			<path d="m899,-436l-211,-203l-179,883z" fill="#EAA04C"/>
		</pattern>
	</defs>
	<rect fill="url(#background)" height="1024" rx="180" width="1024"/>
	<path d="m689.941,353.941l-83.882,-83.882a48,48,0,0,0,-33.941,-14.059h-204.118c-26.51,0,-48,21.49,-48,48v416c0,26.51,21.49,48,48,48h288c26.51,0,48,-21.49,48,-48v-332.118a48,48,0,0,0,-14.059,-33.941zm-37.823,30.059h-76.118v-76.118l76.118,76.118zm-284.118,336v-416h160v104c0,13.255,10.745,24,24,24h104v288h-288zm144,-76.024c0,10.691,-12.926,16.045,-20.485,8.485l-35.515,-35.975h-28c-6.627,0,-12,-5.373,-12,-12v-56c0,-6.627,5.373,-12,12,-12h28l35.515,-36.947c7.56,-7.56,20.485,-2.206,20.485,8.485v135.952zm41.201,-47.13c9.051,-9.297,9.06,-24.133,0.001,-33.439c-22.149,-22.752,12.235,-56.246,34.395,-33.481c27.198,27.94,27.212,72.444,0.001,100.401c-21.793,22.386,-56.947,-10.315,-34.397,-33.481z" fill="#FFF"/>
</svg>
