<?xml version="1.0" encoding="utf-8"?>
<svg viewBox="0 0 1024 1024" xmlns="http://www.w3.org/2000/svg">
	<defs>
		<pattern id="background" height="100%" viewBox="0 0 1024 1024" width="100%">
			<rect fill="#ED8A42" height="1024" width="1024"/>
			<path d="m509,244l128,530l145,-303z" fill="#EB7E3B"/>
			<path d="m509,244l-413,392l541,138z" fill="#EC8E44"/>
			<path d="m782,471l319,-559l-592,332z" fill="#E7873F"/>
			<path d="m1441,936l-245,-628l-414,163z" fill="#E14E24"/>
			<path d="m637,774l804,162l-659,-465z" fill="#DE4621"/>
			<path d="m230,1281l697,-79l-290,-428z" fill="#E04C23"/>
			<path d="m96,636l134,645l407,-507z" fill="#E57335"/>
			<path d="m1196,308l-95,-396l-319,559z" fill="#E26E32"/>
			<path d="m96,636l-230,512l364,133z" fill="#E37C38"/>
			<path d="m-270,11l-33,856l399,-231z" fill="#EDB157"/>
			<path d="m-303,867l169,281l230,-512z" fill="#E68F42"/>
			<path d="m509,244l-779,-233l366,625z" fill="#EDB75A"/>
			<path d="m88,-471l-358,482l779,233z" fill="#EECA66"/>
			<path d="m927,1202l514,-266l-804,-162z" fill="#C63122"/>
			<path d="m1101,-88l-202,-348l-390,680z" fill="#E79344"/>
			<path d="m688,-639l-600,168l421,715z" fill="#EDB65A"/>
			<path d="m899,-436l-211,-203l-179,883z" fill="#EAA04C"/>
		</pattern>
	</defs>
	<rect fill="url(#background)" height="1024" rx="180" width="1024"/>
	<path d="m726.38,257.51l-319.97,94.49a32,32,0,0,0,-22.41,30.51v261.41a139,139,0,0,0,-32,-3.92c-53,0,-96,28.66,-96,64s43,64,96,64s96,-28.66,96,-64v-233.68l256,-75v184.61a138.4,138.4,0,0,0,-32,-3.93c-53,0,-96,28.66,-96,64s43,64,96,64s96,-28.65,96,-64v-352a32,32,0,0,0,-41.62,-30.49z" fill="#FFF"/>
</svg>
